<?xml version="1.0" standalone="no"?><svg xmlns="http://www.w3.org/2000/svg" viewBox="0 0 1440 320">
  <path fill="#448999" fill-opacity="1" d="M0,288L40,277.3C80,267,160,245,240,213.3C320,181,400,139,480,117.3C560,96,640,96,720,106.7C800,117,880,139,960,133.3C1040,128,1120,96,1200,96C1280,96,1360,128,1400,144L1440,160L1440,320L1400,320C1360,320,1280,320,1200,320C1120,320,1040,320,960,320C880,320,800,320,720,320C640,320,560,320,480,320C400,320,320,320,240,320C160,320,80,320,40,320L0,320Z"></path>
</svg>