<?xml version="1.0" standalone="no"?>
<svg xmlns="http://www.w3.org/2000/svg" viewBox="0 0 1440 320">
<path fill="#448999" fill-opacity="1" d="M0,288L40,277.3C80,267,160,245,240,213.3C320,181,400,139,480,117.3C560,96,640,96,720,106.7C800,117,880,139,960,133.3C1040,128,1120,96,1200,96C1280,96,1360,128,1400,144L1440,160L1440,320L1400,320C1360,320,1280,320,1200,320C1120,320,1040,320,960,320C880,320,800,320,720,320C640,320,560,320,480,320C400,320,320,320,240,320C160,320,80,320,40,320L0,320Z"></path>
<path fill="#153d47" fill-opacity="1" d="M0,32L40,32C80,32,160,32,240,58.7C320,85,400,139,480,170.7C560,203,640,213,720,197.3C800,181,880,139,960,144C1040,149,1120,203,1200,218.7C1280,235,1360,213,1400,202.7L1440,192L1440,320L1400,320C1360,320,1280,320,1200,320C1120,320,1040,320,960,320C880,320,800,320,720,320C640,320,560,320,480,320C400,320,320,320,240,320C160,320,80,320,40,320L0,320Z"></path>
</svg>
